<svg viewBox="0 0 24 24">
  <path d="m12.062 2a4.5 4.5 0 0 0-4.5488 4.1465 4.5 4.5 0 0 0 2.1816 4.2187 3.5 3.5 0 0 0-0.14062 0.13086 4.5 4.5 0 0 0-1.7207-0.48438 4.5 4.5 0 0 0-4.8203 4.1348 4.5 4.5 0 0 0 4.1133 4.8379 4.5 4.5 0 0 0 3.877-1.6621l-0.50391 1.1777-1.5 3.5h3 3l-1.5-3.5-0.50586-1.1797a4.5 4.5 0 0 0 3.1328 1.6641 4.5 4.5 0 0 0 4.8555-4.0918l-4.4824-0.39258 4.4883 0.31445a4.5 4.5 0 0 0-4.1543-4.8027 4.5 4.5 0 0 0-2.3887 0.48633 3.5 3.5 0 0 0-0.14258-0.13281 4.5 4.5 0 0 0 2.1797-3.4727l-4.4824-0.39258 4.4883 0.31445a4.5 4.5 0 0 0-4.1543-4.8027 4.5 4.5 0 0 0-0.27148-0.011719zm-0.0625 11 0.25195 0.017578a4.5 4.5 0 0 0-0.001953 0.003906l-0.25-0.021484zm-4.5 1.5 1.3867 0.097656a3.5 3.5 0 0 0 0.013672 0.025391l-1.4004-0.12305z" />
</svg>
